Coordinates
version=1
nRows=13
nColumns=36
inDegrees=yes

Units are S.I. units (second, meters, Newtons, ...)
If the header above contains a line with 'inDegrees', this indicates whether rotational values are in degrees (yes) or radians (no).

endheader
time	pelvis_tilt	pelvis_list	pelvis_rotation	pelvis_tx	pelvis_ty	pelvis_tz	hip_flexion_r	hip_adduction_r	hip_rotation_r	knee_angle_r	knee_angle_r_beta	ankle_angle_r	subtalar_angle_r	mtp_angle_r	hip_flexion_l	hip_adduction_l	hip_rotation_l	knee_angle_l	knee_angle_l_beta	ankle_angle_l	subtalar_angle_l	mtp_angle_l	lumbar_extension	lumbar_bending	lumbar_rotation	arm_flex_r	arm_add_r	arm_rot_r	elbow_flex_r	pro_sup_r	arm_flex_l	arm_add_l	arm_rot_l	elbow_flex_l	pro_sup_l
      2.75000000	    -16.66682315	      0.86157133	     12.32568527	      0.53362533	      0.89978822	     -0.06600459	     47.09172465	      3.40813679	     -0.45728008	     48.44258343	      0.84548258	     21.93172104	    -13.59010589	     -7.49999985	     62.70675343	     -4.88350638	      0.36824803	     41.95696136	      0.73228712	     -0.22035738	    -10.04200426	     -7.49999985	    -20.27765431	      1.41373703	     -2.12028949	     52.09440130	      4.89533936	     70.54838427	    124.31087299	     95.16285271	     49.17196630	      7.79873419	     78.33576303	    125.49916930	     86.40668480
      2.76666670	    -16.86678824	      0.98342094	     12.32669704	      0.53003999	      0.89391616	     -0.06843790	     48.01604830	      3.06111221	     -0.46948202	     49.51735172	      0.86424082	     22.62051977	    -13.35364618	     -7.49999985	     63.87593113	     -4.94062334	      0.40862507	     42.55983465	      0.74280924	     -0.61272772	    -10.30660727	     -7.49999985	    -20.93133658	      1.70436630	     -2.36576373	     52.95088610	      4.85789627	     70.14191663	    124.91890644	     95.20116630	     50.30762064	      7.96939656	     78.22626919	    125.81664706	     86.45061795
      2.78333330	    -17.22184679	      1.21986013	     12.53694752	      0.53096167	      0.88800784	     -0.06882323	     49.04319428	      2.58230329	     -0.38190845	     50.74622699	      0.88568874	     23.63900363	    -12.57570926	     -7.49999985	     65.06577637	     -4.71658448	      0.73411606	     43.02394832	      0.75090956	     -1.41034455	    -11.00616841	     -7.49999985	    -21.16388830	      1.80800698	     -2.58302864	     53.50539373	      4.55353325	     69.70045072	    125.55623304	     95.50475058	     50.92132607	      7.99874204	     78.69496395	    126.04609303	     86.67478069
      2.80000000	    -17.37617696	      1.13781744	     13.04716401	      0.53511887	      0.88609537	     -0.06700264	     49.34641599	      2.69009181	     -0.12463445	     51.22978418	      0.89412841	     24.23759043	    -13.14811380	     -7.49999985	     65.92937903	     -4.67683888	      1.19669728	     43.28064078	      0.75538968	     -2.13140018	    -11.56109606	     -7.49999985	    -21.39644825	      2.00878763	     -2.95552508	     53.39290955	      4.28986846	     69.42937470	    125.56441453	     95.67557140	     51.03909779	      7.79891069	     79.36870879	    125.86900666	     86.78641331
      2.81666670	    -17.62365916	      1.16984360	     13.21193738	      0.53022328	      0.88023013	     -0.06919630	     50.17081345	      2.91083162	      0.44444380	     52.24030920	      0.91176540	     24.54354065	    -13.85420644	     -7.49999985	     67.01436650	     -4.56630338	      1.57676721	     43.86688116	      0.76562151	     -2.55850506	    -12.33160304	     -7.49999985	    -21.53893364	      2.15122773	     -3.09857084	     53.67252965	      4.12033877	     69.26932958	    125.72984174	     95.90178222	     51.43445513	      7.68877645	     80.00437429	    125.95254692	     86.91099040
      2.83333330	    -17.92484824	      1.07891229	     13.35901321	      0.52943262	      0.87779716	     -0.06925705	     50.81386106	      3.33189833	      1.14104597	     52.74621870	      0.92059518	     24.79448568	    -14.47770498	     -7.49999985	     67.94208504	     -4.45841576	      2.02075994	     44.09155659	      0.76954283	     -3.21467515	    -13.11929530	     -7.49999985	    -21.76056680	      2.39424957	     -3.37161708	     53.78210350	      4.08714762	     69.22287388	    126.01218754	     95.82183925	     51.65751011	      7.64099409	     80.38808133	    126.11078240	     86.85340490
      2.85000000	    -18.10663834	      1.07868097	     13.33340169	      0.52953041	      0.87969078	     -0.06957999	     51.02855631	      3.59885096	      1.48735435	     53.04253872	      0.92576694	     24.67713028	    -15.17917294	     -7.49999985	     68.17006571	     -4.37277784	      2.57039341	     43.69750302	      0.76266530	     -3.56014070	    -13.10967796	     -7.49999985	    -22.06821223	      2.42839277	     -3.57566480	     53.69431018	      4.06804862	     69.28115028	    126.02206449	     94.72343802	     51.79611573	      7.43571462	     80.74566281	    126.24344364	     86.03293394
      2.86666670	    -18.21231401	      1.15003998	     13.27677326	      0.52844354	      0.87465881	     -0.06878940	     51.42332864	      4.00052871	      2.17208968	     53.78610975	      0.93874471	     23.94768897	    -17.24378433	     -7.49999985	     68.40782993	     -4.29086879	      2.98338794	     43.44939628	      0.75833502	     -3.86861389	    -13.60210927	     -7.49999985	    -22.59241084	      2.43389482	     -3.72732604	     54.03278398	      4.30175927	     69.59512418	    125.81852810	     94.72940818	     52.15634517	      7.13805845	     81.25259276	    126.39676080	     85.77204846
      2.88333330	    -18.48724149	      1.06681866	     13.18371775	      0.52015447	      0.86824815	     -0.06786500	     52.58863352	      4.36270687	      2.62683771	     54.80460564	      0.95652081	     23.72451785	    -18.22557186	     -7.49999985	     69.31377688	     -4.32808485	      3.37289174	     43.35449589	      0.75667870	     -3.86520197	    -13.84978464	     -7.49999985	    -23.15243656	      2.54195930	     -3.78959934	     55.05253767	      4.52507475	     69.65548307	    125.68226751	     94.97808425	     53.08886289	      7.34929592	     81.25610253	    126.22019495	     85.96420508
      2.90000000	    -18.76515365	      0.83014427	     13.13588986	      0.52329616	      0.86630251	     -0.07072365	     53.52583040	      4.71808521	      3.01135730	     55.55248296	      0.96957374	     23.53491769	    -19.13416556	     -7.49999985	     70.16584437	     -4.28455185	      3.87221734	     43.33551425	      0.75634741	     -4.04006862	    -14.56885695	     -7.49999985	    -23.39580019	      2.94273285	     -3.73154906	     55.55045927	      4.40910894	     69.96051580	    125.51038933	     95.61926377	     53.55362064	      7.49382167	     81.30560867	    125.63532701	     86.47211735
      2.91666670	    -19.04691047	      0.71221325	     13.22098058	      0.51993377	      0.86489050	     -0.06759750	     54.37226992	      4.85205201	      3.09620859	     56.22258502	      0.98126922	     23.45474545	    -19.59604980	     -7.49999985	     70.92540354	     -4.35893904	      3.94112204	     43.17941045	      0.75362288	     -4.52996974	    -15.24827152	     -7.49999985	    -23.88252068	      3.18245424	     -3.70681648	     56.27620869	      4.48384138	     70.31263162	    125.41477547	     94.54560129	     54.25554323	      7.53726369	     81.21595785	    125.39976958	     85.17199331
      2.93333330	    -19.01427291	      0.59089585	     13.15419590	      0.51966864	      0.86469071	     -0.06729939	     54.69427939	      5.08663857	      3.18600164	     56.52859935	      0.98661018	     23.09870807	    -19.78956922	     -7.49999986	     71.14897756	     -4.58524372	      3.94592613	     43.14471715	      0.75301737	     -5.02803073	    -15.69493345	     -7.49999986	    -24.55431297	      3.49425807	     -3.58496826	     57.03999150	      4.48970039	     70.57838648	    125.32364417	     94.35981135	     54.77615473	      7.62287277	     81.01724232	    125.11748408	     85.23333345
      2.95000000	    -18.96635974	      0.57121757	     13.01201034	      0.51993876	      0.85914818	     -0.06742757	     55.12430223	      5.16837386	      3.07358542	     57.18799886	      0.99811887	     23.26120738	    -19.51721686	     -7.49999986	     71.40723270	     -4.83558957	      3.67477434	     43.56327446	      0.76032257	     -5.23182758	    -16.32495076	     -7.49999986	    -25.10275402	      3.58896306	     -3.51332222	     57.64164871	      4.75318654	     70.95374283	    125.11781110	     97.19798212	     55.40098115	      7.73130106	     80.51777575	    124.76519433	     88.79198325
